<mxfile host="app.diagrams.net" modified="2023-02-22T21:48:07.467Z" agent="5.0 (Windows NT 10.0; Win64; x64) AppleWebKit/537.36 (KHTML, like Gecko) Chrome/110.0.0.0 Safari/537.36" etag="yZprgD4FiR8UA5Nl3F4b" version="20.8.20" type="github">
  <diagram name="Page-1" id="udBJM-X7W0BlwFVBB_-y">
    <mxGraphModel dx="1434" dy="796" grid="0" gridSize="10" guides="1" tooltips="1" connect="1" arrows="1" fold="1" page="1" pageScale="1" pageWidth="1654" pageHeight="1169" math="0" shadow="0">
      <root>
        <mxCell id="0" />
        <mxCell id="1" parent="0" />
        <mxCell id="DTQv2m_cvqpgpinM3lIj-1" value="&lt;b&gt;Pod 1&lt;/b&gt;" style="rounded=1;whiteSpace=wrap;html=1;spacingBottom=48;" vertex="1" parent="1">
          <mxGeometry x="603" y="148" width="170" height="122" as="geometry" />
        </mxCell>
        <mxCell id="DTQv2m_cvqpgpinM3lIj-2" value="&lt;font style=&quot;font-size: 9px;&quot;&gt;Containerized &lt;br&gt;App 1&lt;/font&gt;" style="rounded=1;whiteSpace=wrap;html=1;" vertex="1" parent="1">
          <mxGeometry x="610" y="201" width="64" height="42" as="geometry" />
        </mxCell>
        <mxCell id="DTQv2m_cvqpgpinM3lIj-3" value="&lt;font style=&quot;font-size: 9px;&quot;&gt;Containerized &lt;br&gt;App 2&lt;/font&gt;" style="rounded=1;whiteSpace=wrap;html=1;" vertex="1" parent="1">
          <mxGeometry x="690" y="201" width="64" height="42" as="geometry" />
        </mxCell>
        <mxCell id="DTQv2m_cvqpgpinM3lIj-4" value="&lt;b&gt;Pod 2&lt;/b&gt;" style="rounded=1;whiteSpace=wrap;html=1;spacingBottom=48;" vertex="1" parent="1">
          <mxGeometry x="791" y="148" width="170" height="122" as="geometry" />
        </mxCell>
        <mxCell id="DTQv2m_cvqpgpinM3lIj-5" value="&lt;font style=&quot;font-size: 9px;&quot;&gt;Containerized &lt;br&gt;App 1&lt;/font&gt;" style="rounded=1;whiteSpace=wrap;html=1;" vertex="1" parent="1">
          <mxGeometry x="807" y="201" width="64" height="42" as="geometry" />
        </mxCell>
        <mxCell id="DTQv2m_cvqpgpinM3lIj-6" value="&lt;font style=&quot;font-size: 9px;&quot;&gt;Containerized &lt;br&gt;App 2&lt;/font&gt;" style="rounded=1;whiteSpace=wrap;html=1;" vertex="1" parent="1">
          <mxGeometry x="883" y="201" width="64" height="42" as="geometry" />
        </mxCell>
        <mxCell id="DTQv2m_cvqpgpinM3lIj-7" value="&lt;font style=&quot;font-size: 12px;&quot;&gt;kubelet&lt;/font&gt;" style="rounded=1;whiteSpace=wrap;html=1;fontSize=9;" vertex="1" parent="1">
          <mxGeometry x="603" y="282" width="83" height="44" as="geometry" />
        </mxCell>
        <mxCell id="DTQv2m_cvqpgpinM3lIj-8" value="&lt;span style=&quot;font-size: 12px;&quot;&gt;kube-proxy&lt;/span&gt;" style="rounded=1;whiteSpace=wrap;html=1;fontSize=9;" vertex="1" parent="1">
          <mxGeometry x="873.5" y="282" width="83" height="44" as="geometry" />
        </mxCell>
        <mxCell id="DTQv2m_cvqpgpinM3lIj-9" value="&lt;font style=&quot;font-size: 12px;&quot;&gt;Container runtime&lt;/font&gt;" style="rounded=1;whiteSpace=wrap;html=1;fontSize=9;" vertex="1" parent="1">
          <mxGeometry x="696" y="282" width="83" height="44" as="geometry" />
        </mxCell>
        <mxCell id="DTQv2m_cvqpgpinM3lIj-10" value="&lt;font style=&quot;font-size: 12px;&quot;&gt;Miscellaneous&lt;/font&gt;" style="rounded=1;whiteSpace=wrap;html=1;fontSize=9;" vertex="1" parent="1">
          <mxGeometry x="785" y="282" width="83" height="44" as="geometry" />
        </mxCell>
        <mxCell id="DTQv2m_cvqpgpinM3lIj-11" value="" style="rounded=1;whiteSpace=wrap;html=1;fontSize=12;fillColor=none;strokeWidth=2;" vertex="1" parent="1">
          <mxGeometry x="588" y="131" width="383" height="213" as="geometry" />
        </mxCell>
        <mxCell id="DTQv2m_cvqpgpinM3lIj-12" value="&lt;b&gt;Worker Node 1&lt;/b&gt;" style="text;html=1;strokeColor=none;fillColor=none;align=center;verticalAlign=middle;whiteSpace=wrap;rounded=0;fontSize=12;" vertex="1" parent="1">
          <mxGeometry x="592" y="97" width="97" height="30" as="geometry" />
        </mxCell>
        <mxCell id="DTQv2m_cvqpgpinM3lIj-13" value="&lt;b&gt;Pod 1&lt;/b&gt;" style="rounded=1;whiteSpace=wrap;html=1;spacingBottom=48;" vertex="1" parent="1">
          <mxGeometry x="603" y="409" width="170" height="122" as="geometry" />
        </mxCell>
        <mxCell id="DTQv2m_cvqpgpinM3lIj-14" value="&lt;font style=&quot;font-size: 9px;&quot;&gt;Containerized &lt;br&gt;App 1&lt;/font&gt;" style="rounded=1;whiteSpace=wrap;html=1;" vertex="1" parent="1">
          <mxGeometry x="610" y="462" width="64" height="42" as="geometry" />
        </mxCell>
        <mxCell id="DTQv2m_cvqpgpinM3lIj-15" value="&lt;font style=&quot;font-size: 9px;&quot;&gt;Containerized &lt;br&gt;App 2&lt;/font&gt;" style="rounded=1;whiteSpace=wrap;html=1;" vertex="1" parent="1">
          <mxGeometry x="690" y="462" width="64" height="42" as="geometry" />
        </mxCell>
        <mxCell id="DTQv2m_cvqpgpinM3lIj-16" value="&lt;b&gt;Pod 2&lt;/b&gt;" style="rounded=1;whiteSpace=wrap;html=1;spacingBottom=48;" vertex="1" parent="1">
          <mxGeometry x="791" y="409" width="170" height="122" as="geometry" />
        </mxCell>
        <mxCell id="DTQv2m_cvqpgpinM3lIj-17" value="&lt;font style=&quot;font-size: 9px;&quot;&gt;Containerized &lt;br&gt;App 1&lt;/font&gt;" style="rounded=1;whiteSpace=wrap;html=1;" vertex="1" parent="1">
          <mxGeometry x="807" y="462" width="64" height="42" as="geometry" />
        </mxCell>
        <mxCell id="DTQv2m_cvqpgpinM3lIj-18" value="&lt;font style=&quot;font-size: 9px;&quot;&gt;Containerized &lt;br&gt;App 2&lt;/font&gt;" style="rounded=1;whiteSpace=wrap;html=1;" vertex="1" parent="1">
          <mxGeometry x="883" y="462" width="64" height="42" as="geometry" />
        </mxCell>
        <mxCell id="DTQv2m_cvqpgpinM3lIj-19" value="&lt;font style=&quot;font-size: 12px;&quot;&gt;kubelet&lt;/font&gt;" style="rounded=1;whiteSpace=wrap;html=1;fontSize=9;" vertex="1" parent="1">
          <mxGeometry x="603" y="543" width="83" height="44" as="geometry" />
        </mxCell>
        <mxCell id="DTQv2m_cvqpgpinM3lIj-20" value="&lt;span style=&quot;font-size: 12px;&quot;&gt;kube-proxy&lt;/span&gt;" style="rounded=1;whiteSpace=wrap;html=1;fontSize=9;" vertex="1" parent="1">
          <mxGeometry x="873.5" y="543" width="83" height="44" as="geometry" />
        </mxCell>
        <mxCell id="DTQv2m_cvqpgpinM3lIj-21" value="&lt;font style=&quot;font-size: 12px;&quot;&gt;Container runtime&lt;/font&gt;" style="rounded=1;whiteSpace=wrap;html=1;fontSize=9;" vertex="1" parent="1">
          <mxGeometry x="696" y="543" width="83" height="44" as="geometry" />
        </mxCell>
        <mxCell id="DTQv2m_cvqpgpinM3lIj-22" value="&lt;font style=&quot;font-size: 12px;&quot;&gt;Miscellaneous&lt;/font&gt;" style="rounded=1;whiteSpace=wrap;html=1;fontSize=9;" vertex="1" parent="1">
          <mxGeometry x="785" y="543" width="83" height="44" as="geometry" />
        </mxCell>
        <mxCell id="DTQv2m_cvqpgpinM3lIj-23" value="" style="rounded=1;whiteSpace=wrap;html=1;fontSize=12;fillColor=none;strokeWidth=2;" vertex="1" parent="1">
          <mxGeometry x="586" y="393" width="389" height="213" as="geometry" />
        </mxCell>
        <mxCell id="DTQv2m_cvqpgpinM3lIj-24" value="&lt;b&gt;Worker Node 2&lt;/b&gt;" style="text;html=1;strokeColor=none;fillColor=none;align=center;verticalAlign=middle;whiteSpace=wrap;rounded=0;fontSize=12;" vertex="1" parent="1">
          <mxGeometry x="592" y="358" width="97" height="30" as="geometry" />
        </mxCell>
        <mxCell id="DTQv2m_cvqpgpinM3lIj-25" value="" style="rounded=1;whiteSpace=wrap;html=1;fontSize=12;fillColor=none;strokeWidth=1;" vertex="1" parent="1">
          <mxGeometry x="546" y="91" width="451" height="564" as="geometry" />
        </mxCell>
        <mxCell id="DTQv2m_cvqpgpinM3lIj-26" value="&lt;b&gt;&lt;font style=&quot;font-size: 14px;&quot;&gt;Cluster&lt;/font&gt;&lt;/b&gt;" style="text;html=1;strokeColor=none;fillColor=none;align=center;verticalAlign=middle;whiteSpace=wrap;rounded=0;fontSize=12;" vertex="1" parent="1">
          <mxGeometry x="728" y="59" width="110" height="30" as="geometry" />
        </mxCell>
        <mxCell id="DTQv2m_cvqpgpinM3lIj-31" value="Api Server" style="rounded=1;whiteSpace=wrap;html=1;strokeColor=#000000;strokeWidth=1;fontSize=14;fillColor=none;" vertex="1" parent="1">
          <mxGeometry x="370" y="317" width="94" height="50" as="geometry" />
        </mxCell>
        <mxCell id="DTQv2m_cvqpgpinM3lIj-33" value="" style="endArrow=classic;startArrow=classic;html=1;rounded=0;fontSize=14;entryX=1;entryY=0.5;entryDx=0;entryDy=0;exitX=0.038;exitY=0.845;exitDx=0;exitDy=0;exitPerimeter=0;" edge="1" parent="1" source="DTQv2m_cvqpgpinM3lIj-11" target="DTQv2m_cvqpgpinM3lIj-31">
          <mxGeometry width="50" height="50" relative="1" as="geometry">
            <mxPoint x="703" y="410" as="sourcePoint" />
            <mxPoint x="753" y="360" as="targetPoint" />
          </mxGeometry>
        </mxCell>
        <mxCell id="DTQv2m_cvqpgpinM3lIj-34" value="" style="endArrow=classic;startArrow=classic;html=1;rounded=0;fontSize=14;entryX=1;entryY=0.75;entryDx=0;entryDy=0;exitX=0;exitY=0.75;exitDx=0;exitDy=0;" edge="1" parent="1" source="DTQv2m_cvqpgpinM3lIj-19" target="DTQv2m_cvqpgpinM3lIj-31">
          <mxGeometry width="50" height="50" relative="1" as="geometry">
            <mxPoint x="603" y="597" as="sourcePoint" />
            <mxPoint x="446" y="420" as="targetPoint" />
          </mxGeometry>
        </mxCell>
        <mxCell id="DTQv2m_cvqpgpinM3lIj-35" value="" style="shape=actor;whiteSpace=wrap;html=1;strokeColor=#000000;strokeWidth=1;fontSize=14;fillColor=none;" vertex="1" parent="1">
          <mxGeometry x="397" y="99" width="40" height="60" as="geometry" />
        </mxCell>
        <mxCell id="DTQv2m_cvqpgpinM3lIj-36" value="" style="endArrow=classic;startArrow=classic;html=1;rounded=0;fontSize=14;entryX=0.5;entryY=0;entryDx=0;entryDy=0;exitX=0.5;exitY=1;exitDx=0;exitDy=0;" edge="1" parent="1" source="DTQv2m_cvqpgpinM3lIj-35" target="DTQv2m_cvqpgpinM3lIj-31">
          <mxGeometry width="50" height="50" relative="1" as="geometry">
            <mxPoint x="648" y="321" as="sourcePoint" />
            <mxPoint x="446" y="420" as="targetPoint" />
          </mxGeometry>
        </mxCell>
        <mxCell id="DTQv2m_cvqpgpinM3lIj-37" value="&lt;font style=&quot;font-size: 12px;&quot;&gt;via kubectl&lt;/font&gt;" style="text;html=1;strokeColor=none;fillColor=none;align=center;verticalAlign=middle;whiteSpace=wrap;rounded=0;fontSize=12;" vertex="1" parent="1">
          <mxGeometry x="315" y="159" width="110" height="30" as="geometry" />
        </mxCell>
        <mxCell id="DTQv2m_cvqpgpinM3lIj-38" value="&lt;font style=&quot;font-size: 12px;&quot;&gt;DevOps Engineer&lt;/font&gt;" style="text;html=1;strokeColor=none;fillColor=none;align=center;verticalAlign=middle;whiteSpace=wrap;rounded=0;fontSize=12;" vertex="1" parent="1">
          <mxGeometry x="367" y="57" width="110" height="30" as="geometry" />
        </mxCell>
        <mxCell id="DTQv2m_cvqpgpinM3lIj-39" value="" style="shape=actor;whiteSpace=wrap;html=1;strokeColor=#000000;strokeWidth=1;fontSize=14;fillColor=none;" vertex="1" parent="1">
          <mxGeometry x="1017" y="343" width="40" height="60" as="geometry" />
        </mxCell>
        <mxCell id="DTQv2m_cvqpgpinM3lIj-40" value="" style="endArrow=classic;startArrow=classic;html=1;rounded=0;fontSize=14;entryX=1;entryY=0.5;entryDx=0;entryDy=0;exitX=0;exitY=0.75;exitDx=0;exitDy=0;" edge="1" parent="1" source="DTQv2m_cvqpgpinM3lIj-39" target="DTQv2m_cvqpgpinM3lIj-8">
          <mxGeometry width="50" height="50" relative="1" as="geometry">
            <mxPoint x="352" y="174" as="sourcePoint" />
            <mxPoint x="1009" y="249" as="targetPoint" />
          </mxGeometry>
        </mxCell>
        <mxCell id="DTQv2m_cvqpgpinM3lIj-41" value="" style="endArrow=classic;startArrow=classic;html=1;rounded=0;fontSize=14;exitX=0;exitY=0.75;exitDx=0;exitDy=0;entryX=1;entryY=0.5;entryDx=0;entryDy=0;" edge="1" parent="1" source="DTQv2m_cvqpgpinM3lIj-39" target="DTQv2m_cvqpgpinM3lIj-20">
          <mxGeometry width="50" height="50" relative="1" as="geometry">
            <mxPoint x="1113" y="363" as="sourcePoint" />
            <mxPoint x="1032" y="554" as="targetPoint" />
          </mxGeometry>
        </mxCell>
        <mxCell id="DTQv2m_cvqpgpinM3lIj-42" value="External Users" style="text;html=1;strokeColor=none;fillColor=none;align=center;verticalAlign=middle;whiteSpace=wrap;rounded=0;fontSize=12;" vertex="1" parent="1">
          <mxGeometry x="994" y="414" width="110" height="30" as="geometry" />
        </mxCell>
        <mxCell id="DTQv2m_cvqpgpinM3lIj-43" value="Controllers" style="rounded=1;whiteSpace=wrap;html=1;strokeColor=#000000;strokeWidth=1;fontSize=14;fillColor=none;" vertex="1" parent="1">
          <mxGeometry x="397" y="404" width="94" height="50" as="geometry" />
        </mxCell>
        <mxCell id="DTQv2m_cvqpgpinM3lIj-44" value="Scheduler" style="rounded=1;whiteSpace=wrap;html=1;strokeColor=#000000;strokeWidth=1;fontSize=14;fillColor=none;" vertex="1" parent="1">
          <mxGeometry x="340" y="469" width="94" height="50" as="geometry" />
        </mxCell>
        <mxCell id="DTQv2m_cvqpgpinM3lIj-45" value="" style="image;html=1;image=img/lib/clip_art/computers/Database_128x128.png;strokeColor=#000000;strokeWidth=1;fontSize=12;fillColor=none;" vertex="1" parent="1">
          <mxGeometry x="464" y="236" width="62" height="39" as="geometry" />
        </mxCell>
        <mxCell id="DTQv2m_cvqpgpinM3lIj-46" value="&lt;font style=&quot;font-size: 12px;&quot;&gt;etcd db&lt;/font&gt;" style="text;html=1;strokeColor=none;fillColor=none;align=center;verticalAlign=middle;whiteSpace=wrap;rounded=0;fontSize=12;" vertex="1" parent="1">
          <mxGeometry x="446" y="209" width="110" height="30" as="geometry" />
        </mxCell>
        <mxCell id="DTQv2m_cvqpgpinM3lIj-47" value="" style="endArrow=classic;startArrow=classic;html=1;rounded=0;fontSize=14;entryX=0.574;entryY=1.06;entryDx=0;entryDy=0;entryPerimeter=0;" edge="1" parent="1" source="DTQv2m_cvqpgpinM3lIj-43" target="DTQv2m_cvqpgpinM3lIj-31">
          <mxGeometry width="50" height="50" relative="1" as="geometry">
            <mxPoint x="471" y="604" as="sourcePoint" />
            <mxPoint x="297" y="383" as="targetPoint" />
          </mxGeometry>
        </mxCell>
        <mxCell id="DTQv2m_cvqpgpinM3lIj-48" value="" style="endArrow=classic;startArrow=classic;html=1;rounded=0;fontSize=14;entryX=0.33;entryY=1.02;entryDx=0;entryDy=0;entryPerimeter=0;exitX=0.25;exitY=0;exitDx=0;exitDy=0;" edge="1" parent="1" source="DTQv2m_cvqpgpinM3lIj-44" target="DTQv2m_cvqpgpinM3lIj-31">
          <mxGeometry width="50" height="50" relative="1" as="geometry">
            <mxPoint x="446" y="414" as="sourcePoint" />
            <mxPoint x="434" y="380" as="targetPoint" />
          </mxGeometry>
        </mxCell>
        <mxCell id="DTQv2m_cvqpgpinM3lIj-49" value="" style="endArrow=classic;startArrow=classic;html=1;rounded=0;fontSize=14;" edge="1" parent="1" source="DTQv2m_cvqpgpinM3lIj-45" target="DTQv2m_cvqpgpinM3lIj-31">
          <mxGeometry width="50" height="50" relative="1" as="geometry">
            <mxPoint x="446" y="414" as="sourcePoint" />
            <mxPoint x="434" y="380" as="targetPoint" />
          </mxGeometry>
        </mxCell>
        <mxCell id="DTQv2m_cvqpgpinM3lIj-50" value="" style="rounded=1;whiteSpace=wrap;html=1;fontSize=12;fillColor=none;strokeWidth=1;" vertex="1" parent="1">
          <mxGeometry x="328" y="198" width="199" height="347" as="geometry" />
        </mxCell>
        <mxCell id="DTQv2m_cvqpgpinM3lIj-51" value="&lt;b&gt;&lt;font style=&quot;font-size: 14px;&quot;&gt;Control Plane&lt;/font&gt;&lt;/b&gt;" style="text;html=1;strokeColor=none;fillColor=none;align=center;verticalAlign=middle;whiteSpace=wrap;rounded=0;fontSize=12;" vertex="1" parent="1">
          <mxGeometry x="421" y="164" width="110" height="30" as="geometry" />
        </mxCell>
        <mxCell id="DTQv2m_cvqpgpinM3lIj-52" value="&lt;b&gt;Master Node&lt;/b&gt;" style="text;html=1;strokeColor=none;fillColor=none;align=center;verticalAlign=middle;whiteSpace=wrap;rounded=0;fontSize=12;" vertex="1" parent="1">
          <mxGeometry x="342" y="545" width="76" height="30" as="geometry" />
        </mxCell>
      </root>
    </mxGraphModel>
  </diagram>
</mxfile>
